<mxfile host="Electron" modified="2024-03-09T14:37:01.114Z" agent="Mozilla/5.0 (Windows NT 10.0; Win64; x64) AppleWebKit/537.36 (KHTML, like Gecko) draw.io/23.1.5 Chrome/120.0.6099.109 Electron/28.1.0 Safari/537.36" etag="hitb5IQwBRWhElcKXCKu" version="23.1.5" type="device">
  <diagram name="Page-1" id="0783ab3e-0a74-02c8-0abd-f7b4e66b4bec">
    <mxGraphModel dx="1050" dy="638" grid="1" gridSize="10" guides="1" tooltips="1" connect="1" arrows="1" fold="1" page="1" pageScale="1" pageWidth="850" pageHeight="1100" background="none" math="0" shadow="0">
      <root>
        <mxCell id="0" />
        <mxCell id="1" parent="0" />
        <mxCell id="1c1d494c118603dd-1" value="" style="swimlane;html=1;childLayout=stackLayout;startSize=10;rounded=0;shadow=0;comic=0;labelBackgroundColor=none;strokeWidth=1;fontFamily=Verdana;fontSize=12;align=center;" parent="1" vertex="1">
          <mxGeometry x="40" y="30" width="770" height="800" as="geometry" />
        </mxCell>
        <mxCell id="1c1d494c118603dd-4" value="Customer" style="swimlane;html=1;startSize=20;" parent="1c1d494c118603dd-1" vertex="1">
          <mxGeometry y="10" width="410" height="790" as="geometry" />
        </mxCell>
        <mxCell id="60571a20871a0731-4" value="" style="ellipse;whiteSpace=wrap;html=1;rounded=0;shadow=0;comic=0;labelBackgroundColor=none;strokeWidth=1;fillColor=#000000;fontFamily=Verdana;fontSize=12;align=center;" parent="1c1d494c118603dd-4" vertex="1">
          <mxGeometry x="80" y="36" width="40" height="40" as="geometry" />
        </mxCell>
        <mxCell id="60571a20871a0731-8" value="Login" style="rounded=1;whiteSpace=wrap;html=1;shadow=0;comic=0;labelBackgroundColor=none;strokeWidth=1;fontFamily=Verdana;fontSize=12;align=center;arcSize=50;" parent="1c1d494c118603dd-4" vertex="1">
          <mxGeometry x="50" y="116" width="100" height="30" as="geometry" />
        </mxCell>
        <mxCell id="8l6_yw3EWJtF-uu-6esG-17" value="" style="endArrow=classic;html=1;rounded=0;entryX=0.5;entryY=0;entryDx=0;entryDy=0;" parent="1c1d494c118603dd-4" source="60571a20871a0731-4" target="60571a20871a0731-8" edge="1">
          <mxGeometry width="50" height="50" relative="1" as="geometry">
            <mxPoint x="100" y="80" as="sourcePoint" />
            <mxPoint x="150" y="30" as="targetPoint" />
          </mxGeometry>
        </mxCell>
        <mxCell id="8l6_yw3EWJtF-uu-6esG-25" value="Select a spot" style="rounded=1;whiteSpace=wrap;html=1;shadow=0;comic=0;labelBackgroundColor=none;strokeWidth=1;fontFamily=Verdana;fontSize=12;align=center;arcSize=50;" parent="1c1d494c118603dd-4" vertex="1">
          <mxGeometry x="70" y="365" width="140" height="54" as="geometry" />
        </mxCell>
        <mxCell id="8l6_yw3EWJtF-uu-6esG-47" value="Collect the receipt" style="rounded=1;whiteSpace=wrap;html=1;shadow=0;comic=0;labelBackgroundColor=none;strokeWidth=1;fontFamily=Verdana;fontSize=12;align=center;arcSize=50;" parent="1c1d494c118603dd-4" vertex="1">
          <mxGeometry x="80" y="586" width="120" height="52" as="geometry" />
        </mxCell>
        <mxCell id="8l6_yw3EWJtF-uu-6esG-49" value="" style="ellipse;shape=endState;fillColor=#000000;strokeColor=#ff0000" parent="1c1d494c118603dd-4" vertex="1">
          <mxGeometry x="105" y="696" width="70" height="70" as="geometry" />
        </mxCell>
        <mxCell id="8l6_yw3EWJtF-uu-6esG-52" value="" style="endArrow=classic;html=1;rounded=0;exitX=0.5;exitY=1;exitDx=0;exitDy=0;entryX=0.5;entryY=0;entryDx=0;entryDy=0;" parent="1c1d494c118603dd-4" source="8l6_yw3EWJtF-uu-6esG-47" target="8l6_yw3EWJtF-uu-6esG-49" edge="1">
          <mxGeometry width="50" height="50" relative="1" as="geometry">
            <mxPoint x="640" y="486" as="sourcePoint" />
            <mxPoint x="690" y="436" as="targetPoint" />
          </mxGeometry>
        </mxCell>
        <mxCell id="8l6_yw3EWJtF-uu-6esG-53" value="Select parking location" style="rounded=1;whiteSpace=wrap;html=1;shadow=0;comic=0;labelBackgroundColor=none;strokeWidth=1;fontFamily=Verdana;fontSize=12;align=center;arcSize=50;" parent="1c1d494c118603dd-4" vertex="1">
          <mxGeometry x="50" y="190" width="100" height="30" as="geometry" />
        </mxCell>
        <mxCell id="8l6_yw3EWJtF-uu-6esG-54" value="" style="endArrow=classic;html=1;rounded=0;exitX=0.5;exitY=1;exitDx=0;exitDy=0;" parent="1c1d494c118603dd-4" source="60571a20871a0731-8" target="8l6_yw3EWJtF-uu-6esG-53" edge="1">
          <mxGeometry width="50" height="50" relative="1" as="geometry">
            <mxPoint x="720" y="390" as="sourcePoint" />
            <mxPoint x="770" y="340" as="targetPoint" />
          </mxGeometry>
        </mxCell>
        <mxCell id="8l6_yw3EWJtF-uu-6esG-11" value="Parking Management System" style="swimlane;html=1;startSize=20;" parent="1c1d494c118603dd-1" vertex="1">
          <mxGeometry x="410" y="10" width="360" height="790" as="geometry" />
        </mxCell>
        <mxCell id="8l6_yw3EWJtF-uu-6esG-22" value="" style="rhombus;whiteSpace=wrap;html=1;" parent="8l6_yw3EWJtF-uu-6esG-11" vertex="1">
          <mxGeometry x="140" y="241" width="80" height="80" as="geometry" />
        </mxCell>
        <mxCell id="8l6_yw3EWJtF-uu-6esG-28" value="Display Slots" style="rounded=1;whiteSpace=wrap;html=1;shadow=0;comic=0;labelBackgroundColor=none;strokeWidth=1;fontFamily=Verdana;fontSize=12;align=center;arcSize=50;" parent="8l6_yw3EWJtF-uu-6esG-11" vertex="1">
          <mxGeometry x="120" y="363" width="120" height="50" as="geometry" />
        </mxCell>
        <mxCell id="8l6_yw3EWJtF-uu-6esG-29" value="" style="endArrow=classic;html=1;rounded=0;entryX=0.5;entryY=0;entryDx=0;entryDy=0;exitX=0.5;exitY=1;exitDx=0;exitDy=0;" parent="8l6_yw3EWJtF-uu-6esG-11" source="8l6_yw3EWJtF-uu-6esG-22" target="8l6_yw3EWJtF-uu-6esG-28" edge="1">
          <mxGeometry width="50" height="50" relative="1" as="geometry">
            <mxPoint x="180" y="353" as="sourcePoint" />
            <mxPoint x="190" y="279" as="targetPoint" />
          </mxGeometry>
        </mxCell>
        <mxCell id="8l6_yw3EWJtF-uu-6esG-31" value="&lt;font style=&quot;font-size: 14px;&quot;&gt;[Available Slots (&amp;gt;0) ]&lt;/font&gt;" style="edgeLabel;html=1;align=center;verticalAlign=middle;resizable=0;points=[];" parent="8l6_yw3EWJtF-uu-6esG-29" vertex="1" connectable="0">
          <mxGeometry x="-0.2952" relative="1" as="geometry">
            <mxPoint as="offset" />
          </mxGeometry>
        </mxCell>
        <mxCell id="8l6_yw3EWJtF-uu-6esG-37" value="" style="endArrow=classic;html=1;rounded=0;entryX=1;entryY=0.5;entryDx=0;entryDy=0;" parent="8l6_yw3EWJtF-uu-6esG-11" edge="1">
          <mxGeometry width="50" height="50" relative="1" as="geometry">
            <mxPoint x="120" y="393" as="sourcePoint" />
            <mxPoint x="-190" y="393.0000000000002" as="targetPoint" />
          </mxGeometry>
        </mxCell>
        <mxCell id="8l6_yw3EWJtF-uu-6esG-40" value="Confirm Payment" style="rounded=1;whiteSpace=wrap;html=1;shadow=0;comic=0;labelBackgroundColor=none;strokeWidth=1;fontFamily=Verdana;fontSize=12;align=center;arcSize=50;" parent="8l6_yw3EWJtF-uu-6esG-11" vertex="1">
          <mxGeometry x="120" y="476" width="120" height="52" as="geometry" />
        </mxCell>
        <mxCell id="8l6_yw3EWJtF-uu-6esG-44" value="Generate Receipt and Slot Information" style="rounded=1;whiteSpace=wrap;html=1;shadow=0;comic=0;labelBackgroundColor=none;strokeWidth=1;fontFamily=Verdana;fontSize=12;align=center;arcSize=50;" parent="8l6_yw3EWJtF-uu-6esG-11" vertex="1">
          <mxGeometry x="120" y="576" width="120" height="70" as="geometry" />
        </mxCell>
        <mxCell id="8l6_yw3EWJtF-uu-6esG-48" value="" style="endArrow=classic;html=1;rounded=0;exitX=0.5;exitY=1;exitDx=0;exitDy=0;entryX=0.5;entryY=0;entryDx=0;entryDy=0;" parent="8l6_yw3EWJtF-uu-6esG-11" source="8l6_yw3EWJtF-uu-6esG-40" target="8l6_yw3EWJtF-uu-6esG-44" edge="1">
          <mxGeometry width="50" height="50" relative="1" as="geometry">
            <mxPoint x="240" y="566" as="sourcePoint" />
            <mxPoint x="290" y="516" as="targetPoint" />
          </mxGeometry>
        </mxCell>
        <mxCell id="8l6_yw3EWJtF-uu-6esG-51" value="" style="endArrow=classic;html=1;rounded=0;entryX=1;entryY=0.5;entryDx=0;entryDy=0;" parent="1c1d494c118603dd-1" source="8l6_yw3EWJtF-uu-6esG-44" target="8l6_yw3EWJtF-uu-6esG-47" edge="1">
          <mxGeometry width="50" height="50" relative="1" as="geometry">
            <mxPoint x="640" y="506" as="sourcePoint" />
            <mxPoint x="690" y="456" as="targetPoint" />
          </mxGeometry>
        </mxCell>
        <mxCell id="8l6_yw3EWJtF-uu-6esG-32" value="" style="endArrow=classic;html=1;rounded=0;entryX=1;entryY=0.5;entryDx=0;entryDy=0;exitX=1;exitY=0.5;exitDx=0;exitDy=0;" parent="1c1d494c118603dd-1" source="8l6_yw3EWJtF-uu-6esG-22" target="8l6_yw3EWJtF-uu-6esG-53" edge="1">
          <mxGeometry width="50" height="50" relative="1" as="geometry">
            <mxPoint x="620" y="349" as="sourcePoint" />
            <mxPoint x="685" y="439" as="targetPoint" />
            <Array as="points">
              <mxPoint x="680" y="290" />
              <mxPoint x="680" y="220" />
            </Array>
          </mxGeometry>
        </mxCell>
        <mxCell id="8l6_yw3EWJtF-uu-6esG-36" value="&lt;font style=&quot;font-size: 14px;&quot;&gt;[Slots not available (=0) ]&lt;/font&gt;" style="edgeLabel;html=1;align=center;verticalAlign=middle;resizable=0;points=[];" parent="8l6_yw3EWJtF-uu-6esG-32" vertex="1" connectable="0">
          <mxGeometry x="0.0474" y="-2" relative="1" as="geometry">
            <mxPoint as="offset" />
          </mxGeometry>
        </mxCell>
        <mxCell id="8l6_yw3EWJtF-uu-6esG-18" value="Request for a parking spots" style="rounded=1;whiteSpace=wrap;html=1;shadow=0;comic=0;labelBackgroundColor=none;strokeWidth=1;fontFamily=Verdana;fontSize=12;align=center;arcSize=50;" parent="1" vertex="1">
          <mxGeometry x="83" y="294" width="110" height="52" as="geometry" />
        </mxCell>
        <mxCell id="8l6_yw3EWJtF-uu-6esG-21" value="" style="endArrow=classic;html=1;rounded=0;exitX=1;exitY=0.5;exitDx=0;exitDy=0;entryX=0;entryY=0.5;entryDx=0;entryDy=0;" parent="1" source="8l6_yw3EWJtF-uu-6esG-18" target="8l6_yw3EWJtF-uu-6esG-22" edge="1">
          <mxGeometry width="50" height="50" relative="1" as="geometry">
            <mxPoint x="490" y="236" as="sourcePoint" />
            <mxPoint x="500" y="320" as="targetPoint" />
            <Array as="points">
              <mxPoint x="510" y="320" />
            </Array>
          </mxGeometry>
        </mxCell>
        <mxCell id="8l6_yw3EWJtF-uu-6esG-38" value="Proceed to Payment" style="rounded=1;whiteSpace=wrap;html=1;shadow=0;comic=0;labelBackgroundColor=none;strokeWidth=1;fontFamily=Verdana;fontSize=12;align=center;arcSize=50;" parent="1" vertex="1">
          <mxGeometry x="120" y="516" width="120" height="52" as="geometry" />
        </mxCell>
        <mxCell id="8l6_yw3EWJtF-uu-6esG-39" value="" style="endArrow=classic;html=1;rounded=0;entryX=0.5;entryY=0;entryDx=0;entryDy=0;exitX=0.5;exitY=1;exitDx=0;exitDy=0;" parent="1" target="8l6_yw3EWJtF-uu-6esG-38" edge="1">
          <mxGeometry width="50" height="50" relative="1" as="geometry">
            <mxPoint x="180" y="460" as="sourcePoint" />
            <mxPoint x="220" y="513" as="targetPoint" />
          </mxGeometry>
        </mxCell>
        <mxCell id="8l6_yw3EWJtF-uu-6esG-41" value="" style="endArrow=classic;html=1;rounded=0;entryX=0;entryY=0.5;entryDx=0;entryDy=0;exitX=1;exitY=0.5;exitDx=0;exitDy=0;" parent="1" source="8l6_yw3EWJtF-uu-6esG-38" target="8l6_yw3EWJtF-uu-6esG-40" edge="1">
          <mxGeometry width="50" height="50" relative="1" as="geometry">
            <mxPoint x="470" y="346" as="sourcePoint" />
            <mxPoint x="520" y="296" as="targetPoint" />
          </mxGeometry>
        </mxCell>
        <mxCell id="8l6_yw3EWJtF-uu-6esG-55" value="" style="endArrow=classic;html=1;rounded=0;exitX=0.5;exitY=1;exitDx=0;exitDy=0;entryX=0.5;entryY=0;entryDx=0;entryDy=0;" parent="1" target="8l6_yw3EWJtF-uu-6esG-18" edge="1">
          <mxGeometry width="50" height="50" relative="1" as="geometry">
            <mxPoint x="138" y="260" as="sourcePoint" />
            <mxPoint x="140.83333333333326" y="294" as="targetPoint" />
          </mxGeometry>
        </mxCell>
      </root>
    </mxGraphModel>
  </diagram>
</mxfile>
